<?xml version="1.0" encoding="iso-8859-1"?>
<!-- Generator: Adobe Illustrator 19.0.0, SVG Export Plug-In . SVG Version: 6.00 Build 0)  -->
<svg version="1.1" id="Layer_1" xmlns="http://www.w3.org/2000/svg" xmlns:xlink="http://www.w3.org/1999/xlink" x="0px" y="0px"
	 viewBox="0 0 309.848 309.848" style="enable-background:new 0 0 309.848 309.848;" xml:space="preserve">
<g>
	<g>
		<g>
			<path style="fill:#4EFFBB;" d="M165.524,155.353c-0.4-0.064-0.806-0.12-1.223-0.12c-27.829,0-50.469-17.398-50.469-38.78V22.955
				c0-4.124-3.429-7.469-7.661-7.469s-7.661,3.345-7.661,7.469v93.495c0,28.381,27.117,51.63,61.297,53.53
				c0.4,0.064,0.806,0.12,1.223,0.12c27.829,0,50.469,17.398,50.469,38.78v93.495c0,4.124,3.429,7.469,7.661,7.469
				s7.661-3.345,7.661-7.469v-93.492C226.821,180.5,199.704,157.253,165.524,155.353z"/>
			<path style="fill:#4EFFBB;" d="M129.61,168.18c-0.295-0.137-0.59-0.274-0.884-0.414c-2.417-1.153-5.268-0.963-7.445,0.575
				c-13.931,9.839-22.768,24.35-22.768,40.543v93.095c0,3.721,2.606,7.168,6.374,7.766c4.798,0.762,8.949-2.831,8.949-7.367v-93.495
				c0-11.482,6.538-21.808,16.896-28.909C135.153,176.939,134.496,170.448,129.61,168.18z"/>
			<path style="fill:#4EFFBB;" d="M217.876,15.589c-3.765,0.598-6.374,4.045-6.374,7.766v93.095c0,11.193-6.214,21.283-16.122,28.36
				c-4.279,3.056-4.188,9.331,0.409,11.914c0.21,0.117,0.42,0.236,0.63,0.356c2.557,1.451,5.732,1.281,8.114-0.432
				c13.653-9.83,22.292-24.192,22.292-40.198V22.955C226.821,18.42,222.674,14.827,217.876,15.589z"/>
			<path style="fill:#4EFFBB;" d="M136.668,48.94h51.957c4.232,0,7.661-3.345,7.661-7.469s-3.429-7.469-7.661-7.469h-51.957
				c-4.232,0-7.661,3.345-7.661,7.469S132.439,48.94,136.668,48.94z"/>
			<path style="fill:#4EFFBB;" d="M136.668,126.187h51.957c4.232,0,7.661-3.345,7.661-7.469s-3.429-7.469-7.661-7.469h-51.957
				c-4.232,0-7.661,3.345-7.661,7.469C129.006,122.842,132.439,126.187,136.668,126.187z"/>
			<path style="fill:#4EFFBB;" d="M136.668,86.365h51.957c4.232,0,7.661-3.345,7.661-7.469s-3.429-7.469-7.661-7.469h-51.957
				c-4.232,0-7.661,3.345-7.661,7.469C129.006,83.018,132.439,86.365,136.668,86.365z"/>
			<path style="fill:#4EFFBB;" d="M188.628,202.932h-51.96c-4.232,0-7.661,3.345-7.661,7.469s3.429,7.469,7.661,7.469h51.957
				c4.232,0,7.661-3.345,7.661-7.469C196.286,206.274,192.857,202.932,188.628,202.932z"/>
			<path style="fill:#4EFFBB;" d="M188.628,280.179h-51.96c-4.232,0-7.661,3.345-7.661,7.469s3.429,7.469,7.661,7.469h51.957
				c4.232,0,7.661-3.345,7.661-7.469C196.286,283.521,192.857,280.179,188.628,280.179z"/>
			<path style="fill:#4EFFBB;" d="M188.628,240.355h-51.96c-4.232,0-7.661,3.345-7.661,7.469s3.429,7.469,7.661,7.469h51.957
				c4.232,0,7.661-3.345,7.661-7.469C196.286,243.699,192.857,240.355,188.628,240.355z"/>
		</g>
		<g>
			<g>
				<path style="fill:#222051;" d="M150.038,139.867c-0.4-0.064-0.803-0.12-1.223-0.12c-27.829,0-50.469-17.398-50.469-38.78V7.469
					C98.346,3.345,94.917,0,90.685,0c-4.229,0-7.661,3.345-7.661,7.469v93.495c0,28.384,27.117,51.63,61.297,53.53
					c0.4,0.064,0.803,0.12,1.223,0.12c27.829,0,50.469,17.398,50.469,38.78v93.495c0,4.124,3.429,7.469,7.661,7.469
					c4.229,0,7.661-3.345,7.661-7.469v-93.495C211.335,165.013,184.218,141.764,150.038,139.867z"/>
			</g>
			<g>
				<path style="fill:#222051;" d="M90.685,203.452c4.232,0,7.661-3.429,7.661-7.661v-2.396c0-11.502,6.561-21.846,16.951-28.947
					c4.331-2.959,3.584-9.544-1.173-11.753c-0.295-0.137-0.59-0.277-0.884-0.417c-2.446-1.167-5.329-0.925-7.542,0.642
					c-13.878,9.836-22.675,24.318-22.675,40.475v2.396C83.023,200.022,86.456,203.452,90.685,203.452L90.685,203.452z"/>
				<path style="fill:#222051;" d="M83.023,219.589v23.314c0,4.232,3.429,7.661,7.661,7.661l0,0c4.232,0,7.661-3.429,7.661-7.661
					v-23.314c0-4.232-3.429-7.661-7.661-7.661l0,0C86.456,211.927,83.023,215.357,83.023,219.589z"/>
				<path style="fill:#222051;" d="M90.685,259.04c-4.232,0-7.661,3.429-7.661,7.661v19.791c0,3.721,2.606,7.168,6.374,7.766
					c4.798,0.762,8.949-2.831,8.949-7.367V266.7C98.346,262.469,94.917,259.04,90.685,259.04L90.685,259.04z"/>
			</g>
			<g>
				<path style="fill:#222051;" d="M202.386,0.102c-3.765,0.598-6.374,4.045-6.374,7.766v93.095c0,11.193-6.214,21.283-16.122,28.36
					c-4.279,3.056-4.188,9.331,0.409,11.914c0.21,0.12,0.42,0.236,0.63,0.356c2.557,1.451,5.732,1.281,8.114-0.432
					c13.653-9.83,22.292-24.192,22.292-40.198V7.469C211.335,2.933,207.187-0.659,202.386,0.102z"/>
			</g>
			<g>
				<path style="fill:#222051;" d="M121.181,33.453h51.957c4.232,0,7.661-3.345,7.661-7.469s-3.429-7.469-7.661-7.469h-51.957
					c-4.229,0-7.661,3.345-7.661,7.469S116.949,33.453,121.181,33.453z"/>
			</g>
			<g>
				<path style="fill:#222051;" d="M121.181,110.701h51.957c4.232,0,7.661-3.345,7.661-7.469s-3.429-7.469-7.661-7.469h-51.957
					c-4.229,0-7.661,3.345-7.661,7.469S116.949,110.701,121.181,110.701z"/>
			</g>
			<g>
				<path style="fill:#222051;" d="M121.181,70.876h51.957c4.232,0,7.661-3.345,7.661-7.469s-3.429-7.469-7.661-7.469h-51.957
					c-4.229,0-7.661,3.345-7.661,7.469S116.949,70.876,121.181,70.876z"/>
			</g>
			<g>
				<path style="fill:#222051;" d="M173.139,187.446h-51.957c-4.229,0-7.661,3.345-7.661,7.469s3.429,7.469,7.661,7.469h51.957
					c4.232,0,7.661-3.345,7.661-7.469C180.8,190.788,177.371,187.446,173.139,187.446z"/>
			</g>
			<g>
				<path style="fill:#222051;" d="M173.139,264.69h-51.957c-4.229,0-7.661,3.345-7.661,7.469s3.429,7.469,7.661,7.469h51.957
					c4.232,0,7.661-3.345,7.661-7.469S177.371,264.69,173.139,264.69z"/>
			</g>
			<g>
				<path style="fill:#222051;" d="M173.139,224.868h-51.957c-4.229,0-7.661,3.345-7.661,7.469s3.429,7.469,7.661,7.469h51.957
					c4.232,0,7.661-3.345,7.661-7.469S177.371,224.868,173.139,224.868z"/>
			</g>
		</g>
	</g>
</g>
<g>
</g>
<g>
</g>
<g>
</g>
<g>
</g>
<g>
</g>
<g>
</g>
<g>
</g>
<g>
</g>
<g>
</g>
<g>
</g>
<g>
</g>
<g>
</g>
<g>
</g>
<g>
</g>
<g>
</g>
</svg>
